#!OML:ASF H:\Terrain\Patient Classification 1\Animal1\Tuesday\Animal1.ASF
:FULLY-SPECIFIED
:DEGREES
1649
root 5.84638 15.5818 -9.91149 -351.85 17.7462 362.114
lowerback 11.1613 -2.83469 1.75612
upperback 0.632836 -3.48204 0.854221
thorax -5.64353 -1.74002 0.458726
lowerneck -11.723 2.48179 -3.83974
upperneck -9.61915 4.1156 6.75596
head -1.3156 2.19295 2.95052
rclavicle 5.46658e-015 1.90833e-014
rhumerus -30.2647 9.90085 -8.74433
rradius 18.6282
rwrist -8.08479
rhand -5.32391 0.211444
rfingers 7.12502
rthumb 20.4822 -28.7282
lclavicle 5.46658e-015 1.90833e-014
lhumerus -28.8749 -0.103715 3.96914
lradius 20.2568
lwrist -42.8559
lhand 32.919 51.3838
lfingers 7.12502
lthumb 56.3103 -291.47
rfemur -45.195 2.57195 20.7779
rtibia 42.6363
rfoot 1.0034 -22.6811
rtoes 9.08645
lfemur -26.2936 18.4052 -16.9629
ltibia 73.833
lfoot -3.35469 -4.94633
ltoes 17.3677
1650
root 5.86305 15.5851 -9.84259 -351.873 17.2069 362.386
lowerback 11.4966 -2.73878 1.81205
upperback 0.776691 -3.34566 0.746907
thorax -5.68776 -1.67422 0.30573
lowerneck -11.763 2.29645 -3.93365
upperneck -10.0057 3.89727 6.71629
head -1.42436 2.08464 2.94966
rclavicle 4.86029e-014 1.55052e-014
rhumerus -29.8361 10.8895 -6.80087
rradius 18.6561
rwrist -7.61925
rhand -6.48459 -0.0577591
rfingers 7.12502
rthumb 19.3665 -29.1134
lclavicle 4.86029e-014 1.55052e-014
lhumerus -28.7331 -0.501567 1.81778
lradius 20.2571
lwrist -43.6845
lhand 33.7128 51.4841
lfingers 7.12502
lthumb 57.0104 -291.939
rfemur -45.1105 2.90218 20.4619
rtibia 43.0009
rfoot -0.838455 -22.532
rtoes 13.4014
lfemur -27.5221 18.7461 -16.965
ltibia 75.9241
lfoot -3.48122 -4.44717
ltoes 18.3421
1651
root 5.88252 15.5927 -9.77579 -351.746 16.6183 362.833
lowerback 11.754 -2.64749 1.69281
upperback 0.901672 -3.24337 0.593052
thorax -5.70071 -1.62174 0.203328
lowerneck -11.721 2.12411 -3.97926
upperneck -10.5317 3.69727 6.69511
head -1.59397 1.98144 2.94568
rclavicle 6.52014e-014 -6.75868e-015
rhumerus -29.4571 12.7797 -5.14416
rradius 18.8489
rwrist -8.79175
rhand -6.92221 -0.933319
rfingers 7.12502
rthumb 18.9456 -30.0306
lclavicle 6.52014e-014 -6.75868e-015
lhumerus -28.7719 -1.29585 -0.172147
lradius 20.3152
lwrist -43.7313
lhand 33.479 52.1969
lfingers 7.12502
lthumb 56.8045 -291.055
rfemur -45.1589 2.94687 20.0926
rtibia 43.4296
rfoot -1.67343 -22.0881
rtoes 13.9304
lfemur -28.8265 18.9598 -17.2296
ltibia 77.8079
lfoot -4.06544 -4.10833
ltoes 14.2398
1652
root 5.89907 15.6074 -9.7081 -351.777 15.876 362.79
lowerback 12.1374 -2.53708 1.96627
upperback 0.977863 -3.05269 0.55694
thorax -5.84814 -1.53431 -0.00415127
lowerneck -11.549 2.02652 -4.23972
upperneck -11.145 3.63669 6.9291
head -1.83534 1.95175 3.07285
rclavicle 6.85807e-015 8.34896e-015
rhumerus -29.17 14.9904 -3.5826
rradius 19.0223
rwrist -10.2089
rhand -6.82966 -1.15749
rfingers 7.12502
rthumb 19.0346 -30.2461
lclavicle 6.85807e-015 8.34896e-015
lhumerus -28.9641 -2.73823 -1.94669
lradius 20.4263
lwrist -42.9657
lhand 32.4537 53.2534
lfingers 7.12502
lthumb 55.8984 -289.278
rfemur -45.1078 2.99408 20.3557
rtibia 43.7976
rfoot -1.91204 -21.5622
rtoes 13.0367
lfemur -30.0159 19.3922 -16.8686
ltibia 79.5836
lfoot -4.61006 -4.02933
ltoes 10.0659
1653
root 5.91226 15.6182 -9.64442 -351.753 15.104 362.844
lowerback 12.5196 -2.41468 2.07659
upperback 1.13177 -2.86864 0.503378
thorax -5.90323 -1.44582 -0.141922
lowerneck -11.8764 1.92252 -4.44465
upperneck -11.4807 3.55898 7.12744
head -1.89807 1.92342 3.1853
rclavicle -6.16232e-015 1.03368e-014
rhumerus -28.9771 17.1363 -2.18708
rradius 19.0225
rwrist -11.448
rhand -6.9944 -0.764545
rfingers 7.12502
rthumb 18.8762 -29.8686
lclavicle -6.16232e-015 1.03368e-014
lhumerus -29.2116 -3.56239 -3.76359
lradius 20.5272
lwrist -42.3786
lhand 31.8795 54.3706
lfingers 7.12502
lthumb 55.3883 -287.775
rfemur -45.123 3.18006 20.439
rtibia 44.135
rfoot -2.66115 -21.0058
rtoes 13.7025
lfemur -31.176 19.5967 -16.5266
ltibia 81.1931
lfoot -4.3357 -4.2729
ltoes 13.3707
1654
root 5.92837 15.6182 -9.58314 -351.638 14.4002 363.072
lowerback 12.7901 -2.23358 2.03262
upperback 1.32621 -2.63325 0.429107
thorax -5.84445 -1.32828 -0.231292
lowerneck -12.1944 1.66871 -4.4848
upperneck -11.879 3.25411 7.12187
head -1.95951 1.77617 3.19109
rclavicle 2.88238e-014 -2.54444e-014
rhumerus -29.0495 19.179 -0.745094
rradius 19.0925
rwrist -13.0831
rhand -6.87072 -1.49632
rfingers 7.12502
rthumb 18.9951 -30.5888
lclavicle 2.88238e-014 -2.54444e-014
lhumerus -29.3325 -4.14486 -5.35884
lradius 20.5498
lwrist -41.741
lhand 31.25 55.7376
lfingers 7.12502
lthumb 54.8271 -285.999
rfemur -45.2167 3.33863 20.2982
rtibia 44.4705
rfoot -3.25373 -20.3574
rtoes 13.541
lfemur -32.382 19.5002 -16.3599
ltibia 82.6768
lfoot -3.86479 -4.88463
ltoes 18.2194
